<svg width="46" height="49" viewBox="0 0 46 49" fill="none" xmlns="http://www.w3.org/2000/svg">
<g id="Group">
<path id="Vector" d="M43.294 39.0173H37.9999C37.1175 35.948 34.2499 33.9017 30.7205 33.9017C26.5293 33.9017 22.9999 37.1757 22.9999 41.0635C22.9999 44.9514 26.5293 48.2253 30.7205 48.2253C34.2499 48.2253 37.1175 46.1791 37.9999 43.1098H43.294C44.6175 43.1098 45.4999 42.0866 45.4999 41.0635C45.4999 39.8358 44.6175 39.0173 43.294 39.0173Z" fill="white"/>
<path id="Vector_2" d="M18.3722 38.6768H2.62748C1.35088 38.6768 0.499817 39.8704 0.499817 41.064C0.499817 42.4964 1.56365 43.4513 2.62748 43.4513H18.3722C19.6488 43.4513 20.4998 42.2577 20.4998 41.064C20.4998 39.6317 19.436 38.6768 18.3722 38.6768Z" fill="white"/>
<path id="Vector_3" d="M2.62748 10.0295H18.3722C19.6488 10.0295 20.4998 8.8359 20.4998 7.64227C20.4998 6.44864 19.436 5.255 18.3722 5.255H2.62748C1.35088 5.255 0.499817 6.44864 0.499817 7.64227C0.499817 8.8359 1.56365 10.0295 2.62748 10.0295Z" fill="white"/>
<path id="Vector_4" d="M30.7205 14.8039C34.2499 14.8039 37.1175 12.7577 37.9999 9.68837H43.294C44.6175 9.68837 45.4999 8.66526 45.4999 7.64215C45.4999 6.61903 44.3969 5.59592 43.294 5.59592H37.9999C37.1175 2.52657 34.2499 0.480347 30.7205 0.480347C26.5293 0.480347 22.9999 3.75431 22.9999 7.64215C22.9999 11.53 26.5293 14.8039 30.7205 14.8039Z" fill="white"/>
<path id="Vector_5" d="M2.7057 26.3988H7.99982C8.88217 29.2635 11.7498 31.5144 15.2792 31.5144C19.4704 31.5144 22.9998 28.2404 22.9998 24.3526C22.9998 20.4648 19.4704 17.1908 15.2792 17.1908C11.7498 17.1908 8.88217 19.237 7.99982 22.3064H2.7057C1.38217 22.3064 0.499817 23.3295 0.499817 24.3526C0.499817 25.3757 1.60276 26.3988 2.7057 26.3988Z" fill="white"/>
<path id="Vector_6" d="M43.3496 21.9658H27.6507C26.3604 21.9658 25.5002 23.1595 25.5002 24.3531C25.5002 25.5467 26.5754 26.7404 27.6507 26.7404H43.3496C44.6399 26.7404 45.5001 25.5467 45.5001 24.3531C45.5001 23.1595 44.6399 21.9658 43.3496 21.9658Z" fill="white"/>
</g>
</svg>
