<svg width="48" height="48" viewBox="0 0 48 48" fill="none" xmlns="http://www.w3.org/2000/svg">
<rect x="4" y="4" width="40" height="40" rx="20" fill="#FFE8DE"/>
<g clip-path="url(#clip0_210_1655)">
<path d="M19.0786 23.3573C19.0268 23.0235 19 22.6815 19 22.3333C19 18.6514 22.0044 15.6667 25.7105 15.6667C29.4166 15.6667 32.421 18.6514 32.421 22.3333C32.421 23.165 32.2677 23.9612 31.9876 24.6954C31.9294 24.8479 31.9004 24.9241 31.8872 24.9837C31.8741 25.0426 31.869 25.0841 31.8676 25.1445C31.8662 25.2055 31.8744 25.2726 31.891 25.4069L32.2264 28.1321C32.2628 28.4271 32.2809 28.5746 32.2318 28.6818C32.1889 28.7758 32.1125 28.8504 32.0176 28.8912C31.9092 28.9378 31.7622 28.9163 31.4681 28.8732L28.8137 28.4841C28.6751 28.4638 28.6058 28.4536 28.5427 28.454C28.4803 28.4543 28.4371 28.4589 28.3759 28.4718C28.3142 28.4848 28.2353 28.5143 28.0775 28.5734C27.3414 28.8491 26.5437 29 25.7105 29C25.362 29 25.0197 28.9736 24.6855 28.9227M20.3596 32.3333C22.8304 32.3333 24.8333 30.2813 24.8333 27.75C24.8333 25.2187 22.8304 23.1667 20.3596 23.1667C17.8889 23.1667 15.886 25.2187 15.886 27.75C15.886 28.2588 15.9669 28.7483 16.1163 29.2056C16.1794 29.3989 16.211 29.4956 16.2214 29.5616C16.2322 29.6305 16.2341 29.6693 16.2301 29.7389C16.2262 29.8057 16.2095 29.8811 16.1761 30.0319L15.6667 32.3333L18.1623 31.9925C18.2985 31.9739 18.3667 31.9646 18.4261 31.965C18.4888 31.9654 18.522 31.9688 18.5834 31.981C18.6417 31.9927 18.7285 32.0233 18.9019 32.0845C19.3588 32.2458 19.8492 32.3333 20.3596 32.3333Z" stroke="#FF7438" stroke-width="1.66667" stroke-linecap="round" stroke-linejoin="round"/>
</g>
<rect x="4" y="4" width="40" height="40" rx="20" stroke="#FFF1EB" stroke-width="6.66667"/>
<defs>
<clipPath id="clip0_210_1655">
<rect width="20" height="20" fill="white" transform="translate(14 14)"/>
</clipPath>
</defs>
</svg>
