<svg width="15" height="15" viewBox="0 0 15 15" fill="none" xmlns="http://www.w3.org/2000/svg">
<style>
        path {
            fill: black;
        }
        @media (prefers-color-scheme: dark) {
            path { fill: white; }
        }
    </style>
<path d="M2.1245 5.25928C2.1245 4.96474 2.18271 4.6113 2.35735 4.31676C2.70663 3.60986 3.34697 3.19751 4.10374 3.19751L11.7879 3.19751C12.5446 3.19751 13.185 3.60986 13.5343 4.31676C13.8835 5.02365 13.8253 5.90727 13.3596 6.55525L9.51755 11.6802C9.11006 12.2104 8.58615 12.5049 7.9458 12.5049C7.30546 12.5049 6.72333 12.2104 6.37405 11.6802L2.53199 6.55525C2.24093 6.20181 2.1245 5.73055 2.1245 5.25928ZM12.6028 5.25928C12.6028 5.14147 12.5446 4.96474 12.4864 4.84693C12.37 4.55239 12.0789 4.37567 11.7879 4.37567L4.16196 4.37567C3.87089 4.37567 3.57983 4.55239 3.40519 4.84693C3.28876 5.08256 3.23055 5.49491 3.52161 5.84836L7.36367 10.9733C7.53831 11.209 7.77116 11.3268 8.00402 11.3268C8.23687 11.3268 8.46972 11.209 8.64436 10.9733L12.4282 5.84836C12.5446 5.67164 12.6028 5.49491 12.6028 5.25928Z" fill="black"/>
</svg>
