<svg width="66" height="57" viewBox="0 0 66 57" fill="none" xmlns="http://www.w3.org/2000/svg">
<g id="eye-off">
<path id="Icon" d="M29.5431 12.8638C30.6607 12.7236 31.8136 12.6483 33.0011 12.6483C47.0399 12.6483 56.252 23.164 59.3469 27.3237C59.7215 27.8271 59.9087 28.0789 60.0136 28.4671C60.0923 28.7587 60.0922 29.2188 60.0135 29.5103C59.9085 29.8986 59.7199 30.152 59.3427 30.6588C58.5182 31.7666 57.2609 33.3235 55.5953 35.012M18.4918 16.6518C12.5461 20.0754 8.50969 24.8319 6.65799 27.3201C6.28174 27.8257 6.09361 28.0785 5.98874 28.4667C5.90997 28.7583 5.90994 29.2182 5.98867 29.5098C6.09349 29.8981 6.28076 30.1498 6.65532 30.6532C9.75019 34.8129 18.9623 45.3286 33.0011 45.3286C38.6617 45.3286 43.5376 43.6189 47.5442 41.3056M8.2511 7.97974L57.7511 49.9972M27.1675 24.0367C25.6745 25.3039 24.7511 27.0547 24.7511 28.9885C24.7511 32.8561 28.4447 35.9914 33.0011 35.9914C35.2793 35.9914 37.3418 35.2075 38.8347 33.9403" stroke="#F0F0F0" stroke-width="4.6686" stroke-linecap="round" stroke-linejoin="round"/>
</g>
</svg>
