<svg width="84" height="47" viewBox="0 0 84 47" fill="none" xmlns="http://www.w3.org/2000/svg">
<path d="M6.4353 32.454C3.68357 29.6898 2.3077 26.3877 2.3077 22.5478C2.3077 18.7079 3.68357 15.412 6.4353 12.6603C9.18704 9.90857 12.4829 8.5327 16.3228 8.5327C19.4497 8.5327 22.2953 9.50206 24.8594 11.4408L22.6267 13.6734C20.6755 12.185 18.5742 11.4408 16.3228 11.4408C13.4084 11.4408 10.9194 12.529 8.85558 14.7053C6.79178 16.8817 5.75988 19.4959 5.75988 22.5478C5.75988 25.5997 6.79178 28.2138 8.85558 30.3902C10.9194 32.5666 13.4084 33.6548 16.3228 33.6548C18.6242 33.6548 20.7256 32.9231 22.6267 31.4596L24.8594 33.6923C22.2703 35.6185 19.4247 36.5816 16.3228 36.5816C12.4829 36.5816 9.18704 35.2057 6.4353 32.454Z" fill="white"/>
<circle cx="11.5184" cy="22.7179" r="3.31837" stroke="#FE7B43" stroke-width="0.933921"/>
<circle cx="22.8744" cy="22.7179" r="3.31837" stroke="#FE7B43" stroke-width="0.933921"/>
<mask id="path-4-outside-1_268_1974" maskUnits="userSpaceOnUse" x="13.3574" y="19.2573" width="7" height="5" fill="black">
<rect fill="white" x="13.3574" y="19.2573" width="7" height="5"/>
<path d="M20.0354 23.6641C20.0354 22.7606 19.7363 21.894 19.2039 21.2552C18.6715 20.6163 17.9494 20.2573 17.1964 20.2573C16.4435 20.2573 15.7214 20.6163 15.1889 21.2552C14.6565 21.894 14.3574 22.7606 14.3574 23.6641L14.8644 23.6641C14.8644 22.9219 15.1101 22.2101 15.5474 21.6853C15.9847 21.1605 16.5779 20.8656 17.1964 20.8656C17.8149 20.8656 18.4081 21.1605 18.8454 21.6853C19.2828 22.2101 19.5285 22.9219 19.5285 23.6641H20.0354Z"/>
</mask>
<path d="M20.0354 23.6641C20.0354 22.7606 19.7363 21.894 19.2039 21.2552C18.6715 20.6163 17.9494 20.2573 17.1964 20.2573C16.4435 20.2573 15.7214 20.6163 15.1889 21.2552C14.6565 21.894 14.3574 22.7606 14.3574 23.6641L14.8644 23.6641C14.8644 22.9219 15.1101 22.2101 15.5474 21.6853C15.9847 21.1605 16.5779 20.8656 17.1964 20.8656C17.8149 20.8656 18.4081 21.1605 18.8454 21.6853C19.2828 22.2101 19.5285 22.9219 19.5285 23.6641H20.0354Z" fill="#FE7B43"/>
<path d="M20.0354 23.6641C20.0354 22.7606 19.7363 21.894 19.2039 21.2552C18.6715 20.6163 17.9494 20.2573 17.1964 20.2573C16.4435 20.2573 15.7214 20.6163 15.1889 21.2552C14.6565 21.894 14.3574 22.7606 14.3574 23.6641L14.8644 23.6641C14.8644 22.9219 15.1101 22.2101 15.5474 21.6853C15.9847 21.1605 16.5779 20.8656 17.1964 20.8656C17.8149 20.8656 18.4081 21.1605 18.8454 21.6853C19.2828 22.2101 19.5285 22.9219 19.5285 23.6641H20.0354Z" stroke="#FE7B43" stroke-width="0.533669" mask="url(#path-4-outside-1_268_1974)"/>
<path d="M35.6073 19.6747V19.3663H39.6072V19.6747H39.1822C38.7378 19.6747 38.3961 19.8608 38.1572 20.233C38.0406 20.4052 37.9822 20.8052 37.9822 21.4329V26.0161C37.9822 27.1494 37.8684 28.03 37.6406 28.6577C37.4184 29.2799 36.9767 29.816 36.3156 30.266C35.6601 30.7105 34.7657 30.9327 33.6324 30.9327C32.3991 30.9327 31.463 30.7188 30.8241 30.291C30.1852 29.8633 29.7325 29.2883 29.4658 28.5661C29.2881 28.0716 29.1992 27.1439 29.1992 25.7828V21.3663C29.1992 20.6719 29.1019 20.2163 28.9075 19.9997C28.7186 19.783 28.4103 19.6747 27.9825 19.6747H27.5575V19.3663H32.4407V19.6747H32.0074C31.5408 19.6747 31.2074 19.8219 31.0074 20.1163C30.8686 20.3163 30.7991 20.733 30.7991 21.3663V26.2911C30.7991 26.73 30.838 27.2328 30.9158 27.7994C30.9991 28.3661 31.1463 28.8077 31.3574 29.1244C31.5685 29.4411 31.8713 29.7022 32.2657 29.9077C32.6657 30.1133 33.1546 30.216 33.7324 30.216C34.4712 30.216 35.1323 30.0549 35.7156 29.7327C36.299 29.4105 36.6962 28.9994 36.9073 28.4994C37.1239 27.9939 37.2323 27.1411 37.2323 25.9412V21.3663C37.2323 20.6607 37.1545 20.2191 36.9989 20.0413C36.7823 19.7969 36.4601 19.6747 36.0323 19.6747H35.6073ZM47.4363 26.8828H43.0614L42.2948 28.6661C42.1059 29.1049 42.0115 29.4327 42.0115 29.6494C42.0115 29.8216 42.092 29.9744 42.2531 30.1077C42.4198 30.2355 42.7753 30.3188 43.3198 30.3577V30.666H39.7615V30.3577C40.2337 30.2744 40.5393 30.166 40.6782 30.0327C40.9615 29.766 41.2754 29.2244 41.6198 28.4077L45.5947 19.108H45.8864L49.8196 28.5077C50.1362 29.2633 50.4223 29.7549 50.6779 29.9827C50.939 30.2049 51.3001 30.3299 51.7612 30.3577V30.666H47.303V30.3577C47.753 30.3355 48.0557 30.2605 48.2113 30.1327C48.3724 30.0049 48.4529 29.8494 48.4529 29.666C48.4529 29.4216 48.3418 29.0355 48.1196 28.5077L47.4363 26.8828ZM47.203 26.2661L45.2864 21.6996L43.3198 26.2661H47.203ZM59.7653 19.3663L59.8903 22.0163H59.5736C59.5125 21.5496 59.4292 21.2163 59.3236 21.0163C59.1514 20.6941 58.9209 20.458 58.632 20.308C58.3487 20.1524 57.9737 20.0747 57.507 20.0747H55.9154V28.7077C55.9154 29.4022 55.9904 29.8355 56.1404 30.0077C56.3515 30.241 56.6765 30.3577 57.1154 30.3577H57.507V30.666H52.7155V30.3577H53.1155C53.5932 30.3577 53.9321 30.2133 54.1321 29.9244C54.2543 29.7466 54.3154 29.3411 54.3154 28.7077V20.0747H52.9572C52.4294 20.0747 52.0544 20.1135 51.8322 20.1913C51.5433 20.2969 51.2961 20.4996 51.0905 20.7996C50.885 21.0996 50.7628 21.5052 50.7239 22.0163H50.4072L50.5406 19.3663H59.7653ZM63.7195 19.983V24.4495H66.2028C66.8472 24.4495 67.2777 24.3523 67.4944 24.1579C67.7833 23.9023 67.9444 23.4523 67.9777 22.8079H68.286V26.7411H67.9777C67.8999 26.1911 67.8222 25.8384 67.7444 25.6828C67.6444 25.4884 67.4805 25.3356 67.2527 25.2245C67.025 25.1134 66.675 25.0578 66.2028 25.0578H63.7195V28.7827C63.7195 29.2827 63.7417 29.5883 63.7862 29.6994C63.8306 29.8049 63.9084 29.891 64.0195 29.9577C64.1306 30.0188 64.3417 30.0494 64.6528 30.0494H66.5694C67.2083 30.0494 67.6722 30.0049 67.9611 29.916C68.2499 29.8272 68.5277 29.6522 68.7944 29.3911C69.1388 29.0466 69.4916 28.5272 69.8527 27.8328H70.186L69.211 30.666H60.5029V30.3577H60.9029C61.1696 30.3577 61.4224 30.2938 61.6612 30.166C61.839 30.0771 61.9584 29.9438 62.0196 29.766C62.0862 29.5883 62.1196 29.2244 62.1196 28.6744V21.3329C62.1196 20.6163 62.0473 20.1746 61.9029 20.008C61.7029 19.7858 61.3696 19.6747 60.9029 19.6747H60.5029V19.3663H69.211L69.336 21.8413H69.011C68.8944 21.2468 68.7638 20.8385 68.6194 20.6163C68.4805 20.3941 68.2722 20.2246 67.9944 20.108C67.7722 20.0247 67.3805 19.983 66.8194 19.983H63.7195ZM77.3818 24.4079L79.8067 28.0244C80.4789 29.0244 80.9761 29.6577 81.2983 29.9244C81.6261 30.1855 82.04 30.3299 82.54 30.3577V30.666H77.6901V30.3577C78.0123 30.3521 78.2512 30.3188 78.4068 30.2577C78.5234 30.2077 78.6179 30.1327 78.6901 30.0327C78.7679 29.9271 78.8067 29.8216 78.8067 29.716C78.8067 29.5883 78.7817 29.4605 78.7317 29.3327C78.6929 29.2383 78.5401 28.9938 78.2734 28.5994L76.3568 25.6995L73.9902 28.7327C73.7402 29.055 73.5902 29.2716 73.5402 29.3827C73.4902 29.4883 73.4652 29.5994 73.4652 29.716C73.4652 29.8938 73.5402 30.041 73.6902 30.1577C73.8402 30.2744 74.1263 30.341 74.5485 30.3577V30.666H70.5403V30.3577C70.8236 30.3299 71.0681 30.2716 71.2736 30.1827C71.6181 30.0383 71.9458 29.8438 72.2569 29.5994C72.568 29.3549 72.9236 28.98 73.3236 28.4744L75.9902 25.1078L73.7652 21.8496C73.1597 20.9663 72.6458 20.3885 72.2236 20.1163C71.8014 19.8385 71.3153 19.6913 70.7653 19.6747V19.3663H75.9902V19.6747C75.5457 19.6913 75.2402 19.7636 75.0735 19.8913C74.9124 20.0191 74.8319 20.1608 74.8319 20.3163C74.8319 20.5219 74.9652 20.8219 75.2318 21.2163L76.9651 23.8079L78.9734 21.2663C79.2067 20.9663 79.3484 20.7607 79.3984 20.6496C79.4539 20.5385 79.4817 20.4246 79.4817 20.308C79.4817 20.1913 79.4484 20.0885 79.3817 19.9997C79.2984 19.883 79.1928 19.8024 79.0651 19.758C78.9373 19.708 78.6734 19.6802 78.2734 19.6747V19.3663H82.2816V19.6747C81.965 19.6913 81.7067 19.7413 81.5067 19.8247C81.2067 19.9524 80.9317 20.1247 80.6817 20.3413C80.4317 20.558 80.0789 20.958 79.6234 21.5413L77.3818 24.4079Z" fill="white"/>
</svg>
