<svg width="311" height="174" viewBox="0 0 311 174" fill="none" xmlns="http://www.w3.org/2000/svg">
<path d="M24.1331 123.702C13.8138 113.336 8.65413 100.953 8.65413 86.5527C8.65413 72.1526 13.8138 59.7929 24.1331 49.4736C34.4524 39.1543 46.8121 33.9947 61.2122 33.9947C72.9386 33.9947 83.6097 37.6299 93.2254 44.9003L84.8527 53.273C77.5354 47.6912 69.6552 44.9003 61.2122 44.9003C50.2831 44.9003 40.9488 48.9811 33.2094 57.1427C25.4699 65.3044 21.6002 75.1077 21.6002 86.5527C21.6002 97.9978 25.4699 107.801 33.2094 115.963C40.9488 124.124 50.2831 128.205 61.2122 128.205C69.8429 128.205 77.723 125.461 84.8527 119.973L93.2254 128.346C83.5159 135.569 72.8448 139.181 61.2122 139.181C46.8121 139.181 34.4524 134.021 24.1331 123.702Z" fill="black"/>
<circle cx="43.1954" cy="85.1954" r="12.4442" stroke="#FE7B43" stroke-width="3.50231"/>
<circle cx="85.7816" cy="85.1954" r="12.4442" stroke="#FE7B43" stroke-width="3.50231"/>
<mask id="path-4-outside-1_1001_12" maskUnits="userSpaceOnUse" x="51.8419" y="73.9684" width="25" height="16" fill="black">
<rect fill="white" x="51.8419" y="73.9684" width="25" height="16"/>
<path d="M75.135 88.7442C75.135 85.3559 74.0133 82.1063 72.0167 79.7103C70.0201 77.3144 67.3121 75.9684 64.4885 75.9684C61.6648 75.9684 58.9568 77.3144 56.9602 79.7103C54.9636 82.1063 53.8419 85.3559 53.8419 88.7442H55.743C55.743 85.9609 56.6644 83.2916 58.3045 81.3234C59.9446 79.3553 62.169 78.2497 64.4885 78.2497C66.8079 78.2497 69.0324 79.3553 70.6725 81.3234C72.3126 83.2916 73.2339 85.9609 73.2339 88.7442H75.135Z"/>
</mask>
<path d="M75.135 88.7442C75.135 85.3559 74.0133 82.1063 72.0167 79.7103C70.0201 77.3144 67.3121 75.9684 64.4885 75.9684C61.6648 75.9684 58.9568 77.3144 56.9602 79.7103C54.9636 82.1063 53.8419 85.3559 53.8419 88.7442H55.743C55.743 85.9609 56.6644 83.2916 58.3045 81.3234C59.9446 79.3553 62.169 78.2497 64.4885 78.2497C66.8079 78.2497 69.0324 79.3553 70.6725 81.3234C72.3126 83.2916 73.2339 85.9609 73.2339 88.7442H75.135Z" fill="#FE7B43"/>
<path d="M75.135 88.7442C75.135 85.3559 74.0133 82.1063 72.0167 79.7103C70.0201 77.3144 67.3121 75.9684 64.4885 75.9684C61.6648 75.9684 58.9568 77.3144 56.9602 79.7103C54.9636 82.1063 53.8419 85.3559 53.8419 88.7442H55.743C55.743 85.9609 56.6644 83.2916 58.3045 81.3234C59.9446 79.3553 62.169 78.2497 64.4885 78.2497C66.8079 78.2497 69.0324 79.3553 70.6725 81.3234C72.3126 83.2916 73.2339 85.9609 73.2339 88.7442H75.135Z" stroke="#FE7B43" stroke-width="2.00132" mask="url(#path-4-outside-1_1001_12)"/>
<path d="M133.531 72.7813V71.625H148.531V72.7813H146.938C145.271 72.7813 143.99 73.4792 143.094 74.875C142.656 75.5208 142.438 77.0208 142.438 79.375V96.5625C142.438 100.813 142.01 104.115 141.156 106.469C140.323 108.802 138.667 110.813 136.188 112.5C133.729 114.167 130.375 115 126.125 115C121.5 115 117.99 114.198 115.594 112.594C113.198 110.99 111.5 108.833 110.5 106.125C109.833 104.271 109.5 100.792 109.5 95.6875V79.125C109.5 76.5208 109.135 74.8125 108.406 74C107.698 73.1875 106.542 72.7813 104.938 72.7813H103.344V71.625H121.656V72.7813H120.031C118.281 72.7813 117.031 73.3333 116.281 74.4375C115.76 75.1875 115.5 76.75 115.5 79.125V97.5938C115.5 99.2396 115.646 101.125 115.938 103.25C116.25 105.375 116.802 107.031 117.594 108.219C118.385 109.406 119.521 110.385 121 111.156C122.5 111.927 124.333 112.313 126.5 112.313C129.271 112.313 131.75 111.708 133.938 110.5C136.125 109.292 137.615 107.75 138.406 105.875C139.219 103.979 139.625 100.781 139.625 96.2813V79.125C139.625 76.4792 139.333 74.8229 138.75 74.1563C137.938 73.2396 136.729 72.7813 135.125 72.7813H133.531ZM177.891 99.8125H161.485L158.61 106.5C157.902 108.146 157.548 109.375 157.548 110.188C157.548 110.833 157.85 111.406 158.454 111.906C159.079 112.385 160.412 112.698 162.454 112.844V114H149.11V112.844C150.881 112.531 152.027 112.125 152.548 111.625C153.61 110.625 154.787 108.594 156.079 105.531L170.985 70.6563H172.079L186.829 105.906C188.016 108.74 189.089 110.583 190.048 111.438C191.027 112.271 192.381 112.74 194.11 112.844V114H177.391V112.844C179.079 112.76 180.214 112.479 180.798 112C181.402 111.521 181.704 110.938 181.704 110.25C181.704 109.333 181.287 107.885 180.454 105.906L177.891 99.8125ZM177.016 97.5L169.829 80.375L162.454 97.5H177.016ZM224.126 71.625L224.595 81.5625H223.408C223.178 79.8125 222.866 78.5625 222.47 77.8125C221.824 76.6042 220.96 75.7188 219.876 75.1563C218.814 74.5729 217.408 74.2813 215.658 74.2813H209.689V106.656C209.689 109.26 209.97 110.885 210.533 111.531C211.324 112.406 212.543 112.844 214.189 112.844H215.658V114H197.689V112.844H199.189C200.98 112.844 202.251 112.302 203.001 111.219C203.46 110.552 203.689 109.031 203.689 106.656V74.2813H198.595C196.616 74.2813 195.21 74.4271 194.376 74.7188C193.293 75.1146 192.366 75.875 191.595 77C190.824 78.125 190.366 79.6458 190.22 81.5625H189.033L189.533 71.625H224.126ZM238.955 73.9375V90.6875H248.268C250.684 90.6875 252.299 90.3229 253.111 89.5938C254.195 88.6354 254.799 86.9479 254.924 84.5313H256.08V99.2813H254.924C254.632 97.2188 254.34 95.8958 254.049 95.3125C253.674 94.5833 253.059 94.0104 252.205 93.5938C251.351 93.1771 250.038 92.9688 248.268 92.9688H238.955V106.938C238.955 108.813 239.038 109.958 239.205 110.375C239.372 110.771 239.663 111.094 240.08 111.344C240.497 111.573 241.288 111.688 242.455 111.688H249.643C252.038 111.688 253.778 111.521 254.861 111.188C255.945 110.854 256.986 110.198 257.986 109.219C259.278 107.927 260.601 105.979 261.955 103.375H263.205L259.549 114H226.893V112.844H228.393C229.393 112.844 230.34 112.604 231.236 112.125C231.903 111.792 232.351 111.292 232.58 110.625C232.83 109.958 232.955 108.594 232.955 106.531V79C232.955 76.3125 232.684 74.6563 232.143 74.0313C231.393 73.1979 230.143 72.7813 228.393 72.7813H226.893V71.625H259.549L260.018 80.9063H258.799C258.361 78.6771 257.872 77.1458 257.33 76.3125C256.809 75.4792 256.028 74.8438 254.986 74.4063C254.153 74.0938 252.684 73.9375 250.58 73.9375H238.955ZM290.19 90.5313L299.284 104.094C301.805 107.844 303.669 110.219 304.878 111.219C306.107 112.198 307.659 112.74 309.534 112.844V114H291.346V112.844C292.555 112.823 293.45 112.698 294.034 112.469C294.471 112.281 294.825 112 295.096 111.625C295.388 111.229 295.534 110.833 295.534 110.438C295.534 109.958 295.44 109.479 295.253 109C295.107 108.646 294.534 107.729 293.534 106.25L286.346 95.375L277.471 106.75C276.534 107.958 275.971 108.771 275.784 109.188C275.596 109.583 275.503 110 275.503 110.438C275.503 111.104 275.784 111.656 276.346 112.094C276.909 112.531 277.982 112.781 279.565 112.844V114H264.534V112.844C265.596 112.74 266.513 112.521 267.284 112.188C268.575 111.646 269.805 110.917 270.971 110C272.138 109.083 273.471 107.677 274.971 105.781L284.971 93.1563L276.628 80.9375C274.357 77.625 272.43 75.4583 270.846 74.4375C269.263 73.3958 267.44 72.8438 265.378 72.7813V71.625H284.971V72.7813C283.305 72.8438 282.159 73.1146 281.534 73.5938C280.93 74.0729 280.628 74.6042 280.628 75.1875C280.628 75.9583 281.128 77.0833 282.128 78.5625L288.628 88.2813L296.159 78.75C297.034 77.625 297.565 76.8542 297.753 76.4375C297.961 76.0208 298.065 75.5938 298.065 75.1563C298.065 74.7188 297.94 74.3333 297.69 74C297.378 73.5625 296.982 73.2604 296.503 73.0938C296.023 72.9063 295.034 72.8021 293.534 72.7813V71.625H308.565V72.7813C307.378 72.8438 306.409 73.0313 305.659 73.3438C304.534 73.8229 303.503 74.4688 302.565 75.2813C301.628 76.0938 300.305 77.5938 298.596 79.7813L290.19 90.5313Z" fill="black"/>
</svg>
