<svg width="48" height="48" viewBox="0 0 48 48" fill="none" xmlns="http://www.w3.org/2000/svg">
<rect x="4" y="4" width="40" height="40" rx="20" fill="#FAE2D7"/>
<path d="M24.8333 15.6667L17.4112 24.5732C17.1205 24.922 16.9752 25.0964 16.973 25.2437C16.971 25.3718 17.0281 25.4936 17.1277 25.5741C17.2423 25.6667 17.4693 25.6667 17.9234 25.6667H24L23.1667 32.3333L30.5888 23.4268C30.8795 23.078 31.0248 22.9036 31.027 22.7563C31.0289 22.6282 30.9719 22.5064 30.8723 22.4259C30.7577 22.3333 30.5307 22.3333 30.0766 22.3333H24L24.8333 15.6667Z" stroke="#FF6523" stroke-width="1.66667" stroke-linecap="round" stroke-linejoin="round"/>
<rect x="4" y="4" width="40" height="40" rx="20" stroke="#FFEFE8" stroke-width="6.66667"/>
</svg>
