<svg width="20" height="20" viewBox="0 0 20 20" fill="none" xmlns="http://www.w3.org/2000/svg">
<path d="M7.47632 14.6012V5.38257C7.47632 5.00135 7.47632 4.81074 7.54567 4.65615C7.6068 4.51987 7.70524 4.40367 7.82961 4.32097C7.9707 4.22714 8.15872 4.19581 8.53475 4.13314L15.5014 2.97203C16.0088 2.88745 16.2626 2.84517 16.4603 2.91861C16.6338 2.98306 16.7793 3.10627 16.8714 3.26684C16.9763 3.44981 16.9763 3.70702 16.9763 4.22146V13.0179M7.47632 14.6012C7.47632 15.9129 6.41299 16.9762 5.10132 16.9762C3.78964 16.9762 2.72632 15.9129 2.72632 14.6012C2.72632 13.2895 3.78964 12.2262 5.10132 12.2262C6.41299 12.2262 7.47632 13.2895 7.47632 14.6012ZM16.9763 13.0179C16.9763 14.3295 15.913 15.3929 14.6013 15.3929C13.2896 15.3929 12.2263 14.3295 12.2263 13.0179C12.2263 11.7062 13.2896 10.6429 14.6013 10.6429C15.913 10.6429 16.9763 11.7062 16.9763 13.0179Z" stroke="#727272" stroke-width="2" stroke-linecap="round" stroke-linejoin="round"/>
</svg>
