<svg width="48" height="48" viewBox="0 0 48 48" fill="none" xmlns="http://www.w3.org/2000/svg">
<rect x="4" y="4" width="40" height="40" rx="20" fill="#FFE8DE"/>
<path d="M22.8903 18.2477C23.2897 18.1976 23.7017 18.1707 24.126 18.1707C29.1426 18.1707 32.4345 21.9284 33.5404 23.4148C33.6742 23.5947 33.7412 23.6846 33.7786 23.8234C33.8068 23.9276 33.8067 24.092 33.7786 24.1962C33.7411 24.3349 33.6737 24.4254 33.5389 24.6065C33.2443 25.0024 32.795 25.5587 32.1998 26.1621M18.9413 19.6013C16.8166 20.8247 15.3743 22.5244 14.7126 23.4135C14.5781 23.5941 14.5109 23.6845 14.4734 23.8232C14.4453 23.9274 14.4453 24.0918 14.4734 24.196C14.5108 24.3347 14.5778 24.4247 14.7116 24.6045C15.8175 26.091 19.1094 29.8486 24.126 29.8486C26.1488 29.8486 27.8911 29.2377 29.3228 28.4111M15.2818 16.5024L32.9702 31.5169M22.0414 22.2402C21.5079 22.693 21.178 23.3186 21.178 24.0097C21.178 25.3917 22.4978 26.5121 24.126 26.5121C24.9401 26.5121 25.6771 26.232 26.2106 25.7791" stroke="#FF7438" stroke-width="1.66828" stroke-linecap="round" stroke-linejoin="round"/>
<rect x="4" y="4" width="40" height="40" rx="20" stroke="#FFF1EB" stroke-width="6.66667"/>
</svg>
