<svg width="17" height="16" viewBox="0 0 17 16" fill="none" xmlns="http://www.w3.org/2000/svg">
<path d="M15.625 5.67432H10.875M15.625 1.51807H1.375M15.625 10.0285H10.875M15.625 14.1847H1.375M2.64167 11.0181H6.44167C6.88504 11.0181 7.10673 11.0181 7.27608 10.9318C7.42504 10.8559 7.54615 10.7348 7.62205 10.5858C7.70833 10.4165 7.70833 10.1948 7.70833 9.7514V5.9514C7.70833 5.50802 7.70833 5.28634 7.62205 5.11699C7.54615 4.96803 7.42504 4.84692 7.27608 4.77102C7.10673 4.68473 6.88504 4.68473 6.44167 4.68473H2.64167C2.19829 4.68473 1.9766 4.68473 1.80726 4.77102C1.6583 4.84692 1.53719 4.96803 1.46129 5.11699C1.375 5.28634 1.375 5.50802 1.375 5.9514V9.7514C1.375 10.1948 1.375 10.4165 1.46129 10.5858C1.53719 10.7348 1.6583 10.8559 1.80726 10.9318C1.9766 11.0181 2.19829 11.0181 2.64167 11.0181Z" stroke="#727272" stroke-width="2" stroke-linecap="round" stroke-linejoin="round"/>
</svg>
