<svg width="19" height="20" viewBox="0 0 19 20" fill="none" xmlns="http://www.w3.org/2000/svg">
<g id="play-square">
<g id="Icon">
<path d="M7.52083 7.44887C7.52083 7.07102 7.52083 6.8821 7.5998 6.77663C7.66861 6.68471 7.77394 6.62721 7.88847 6.61903C8.01989 6.60964 8.17881 6.7118 8.49665 6.91613L12.2338 9.31857C12.5096 9.49588 12.6475 9.58453 12.6951 9.69725C12.7367 9.79575 12.7367 9.90689 12.6951 10.0054C12.6475 10.1181 12.5096 10.2068 12.2338 10.3841L8.49665 12.7865C8.17881 12.9908 8.01989 13.093 7.88847 13.0836C7.77394 13.0754 7.66861 13.0179 7.5998 12.926C7.52083 12.8205 7.52083 12.6316 7.52083 12.2538V7.44887Z" stroke="#727272" stroke-width="2" stroke-linecap="round" stroke-linejoin="round"/>
<path d="M2.375 6.52632C2.375 5.19619 2.375 4.53113 2.63386 4.02309C2.86156 3.57621 3.22489 3.21288 3.67177 2.98518C4.17981 2.72632 4.84488 2.72632 6.175 2.72632H12.825C14.1551 2.72632 14.8202 2.72632 15.3282 2.98518C15.7751 3.21288 16.1384 3.57621 16.3661 4.02309C16.625 4.53113 16.625 5.19619 16.625 6.52632V13.1763C16.625 14.5064 16.625 15.1715 16.3661 15.6795C16.1384 16.1264 15.7751 16.4898 15.3282 16.7175C14.8202 16.9763 14.1551 16.9763 12.825 16.9763H6.175C4.84488 16.9763 4.17981 16.9763 3.67177 16.7175C3.22489 16.4898 2.86156 16.1264 2.63386 15.6795C2.375 15.1715 2.375 14.5064 2.375 13.1763V6.52632Z" stroke="#727272" stroke-width="2" stroke-linecap="round" stroke-linejoin="round"/>
</g>
</g>
</svg>
